<mxfile host="app.diagrams.net" agent="Mozilla/5.0 (Macintosh; Intel Mac OS X 10_15_7) AppleWebKit/537.36 (KHTML, like Gecko) Chrome/137.0.0.0 Safari/537.36" version="27.1.6">
  <diagram name="Page-1" id="LExq1lEhHm_FoBmojLbs">
    <mxGraphModel dx="992" dy="570" grid="1" gridSize="10" guides="1" tooltips="1" connect="1" arrows="1" fold="1" page="1" pageScale="1" pageWidth="850" pageHeight="1100" math="0" shadow="0">
      <root>
        <mxCell id="0" />
        <mxCell id="1" parent="0" />
        <mxCell id="OI1ush0Sum9m7_NIzRbb-33" value="" style="shape=table;startSize=0;container=1;collapsible=0;childLayout=tableLayout;" parent="1" vertex="1">
          <mxGeometry x="249" y="250" width="185" height="20" as="geometry" />
        </mxCell>
        <mxCell id="OI1ush0Sum9m7_NIzRbb-34" value="" style="shape=tableRow;horizontal=0;startSize=0;swimlaneHead=0;swimlaneBody=0;strokeColor=inherit;top=0;left=0;bottom=0;right=0;collapsible=0;dropTarget=0;fillColor=none;points=[[0,0.5],[1,0.5]];portConstraint=eastwest;" parent="OI1ush0Sum9m7_NIzRbb-33" vertex="1">
          <mxGeometry width="185" height="20" as="geometry" />
        </mxCell>
        <mxCell id="OI1ush0Sum9m7_NIzRbb-35" value="Tag" style="shape=partialRectangle;html=1;whiteSpace=wrap;connectable=0;strokeColor=inherit;overflow=hidden;fillColor=none;top=0;left=0;bottom=0;right=0;pointerEvents=1;" parent="OI1ush0Sum9m7_NIzRbb-34" vertex="1">
          <mxGeometry width="111" height="20" as="geometry">
            <mxRectangle width="111" height="20" as="alternateBounds" />
          </mxGeometry>
        </mxCell>
        <mxCell id="OI1ush0Sum9m7_NIzRbb-36" value="&lt;font style=&quot;font-size: 8px;&quot;&gt;Set&lt;/font&gt;" style="shape=partialRectangle;html=1;whiteSpace=wrap;connectable=0;strokeColor=inherit;overflow=hidden;fillColor=none;top=0;left=0;bottom=0;right=0;pointerEvents=1;" parent="OI1ush0Sum9m7_NIzRbb-34" vertex="1">
          <mxGeometry x="111" width="30" height="20" as="geometry">
            <mxRectangle width="30" height="20" as="alternateBounds" />
          </mxGeometry>
        </mxCell>
        <mxCell id="OI1ush0Sum9m7_NIzRbb-113" value="Byte" style="shape=partialRectangle;html=1;whiteSpace=wrap;connectable=0;strokeColor=inherit;overflow=hidden;fillColor=none;top=0;left=0;bottom=0;right=0;pointerEvents=1;fontSize=6;" parent="OI1ush0Sum9m7_NIzRbb-34" vertex="1">
          <mxGeometry x="141" width="44" height="20" as="geometry">
            <mxRectangle width="44" height="20" as="alternateBounds" />
          </mxGeometry>
        </mxCell>
        <mxCell id="OI1ush0Sum9m7_NIzRbb-41" value="" style="group" parent="1" vertex="1" connectable="0">
          <mxGeometry x="400" y="270" width="230" height="220" as="geometry" />
        </mxCell>
        <mxCell id="OI1ush0Sum9m7_NIzRbb-19" value="Valid" style="text;html=1;align=center;verticalAlign=middle;resizable=0;points=[];autosize=1;strokeColor=none;fillColor=none;fontSize=8;" parent="OI1ush0Sum9m7_NIzRbb-41" vertex="1">
          <mxGeometry x="9" y="16" width="40" height="20" as="geometry" />
        </mxCell>
        <mxCell id="OI1ush0Sum9m7_NIzRbb-20" value="Tag" style="text;html=1;align=center;verticalAlign=middle;resizable=0;points=[];autosize=1;strokeColor=none;fillColor=none;fontSize=8;" parent="OI1ush0Sum9m7_NIzRbb-41" vertex="1">
          <mxGeometry x="45.99948717948718" y="16" width="40" height="20" as="geometry" />
        </mxCell>
        <mxCell id="OI1ush0Sum9m7_NIzRbb-21" value="Data" style="text;html=1;align=center;verticalAlign=middle;resizable=0;points=[];autosize=1;strokeColor=none;fillColor=none;fontSize=8;" parent="OI1ush0Sum9m7_NIzRbb-41" vertex="1">
          <mxGeometry x="109.99615384615385" y="16" width="40" height="20" as="geometry" />
        </mxCell>
        <mxCell id="OI1ush0Sum9m7_NIzRbb-40" value="" style="group" parent="OI1ush0Sum9m7_NIzRbb-41" vertex="1" connectable="0">
          <mxGeometry x="17.692307692307693" y="33.333333333333336" width="212.30769230769232" height="176.66666666666669" as="geometry" />
        </mxCell>
        <mxCell id="OI1ush0Sum9m7_NIzRbb-6" value="" style="shape=table;startSize=0;container=1;collapsible=0;childLayout=tableLayout;fontSize=16;" parent="OI1ush0Sum9m7_NIzRbb-40" vertex="1">
          <mxGeometry width="161.92307692307708" height="42.88888888888911" as="geometry" />
        </mxCell>
        <mxCell id="OI1ush0Sum9m7_NIzRbb-7" value="" style="shape=tableRow;horizontal=0;startSize=0;swimlaneHead=0;swimlaneBody=0;strokeColor=inherit;top=0;left=0;bottom=0;right=0;collapsible=0;dropTarget=0;fillColor=none;points=[[0,0.5],[1,0.5]];portConstraint=eastwest;fontSize=16;" parent="OI1ush0Sum9m7_NIzRbb-6" vertex="1">
          <mxGeometry width="161.92307692307708" height="22" as="geometry" />
        </mxCell>
        <mxCell id="OI1ush0Sum9m7_NIzRbb-8" value="" style="shape=partialRectangle;html=1;whiteSpace=wrap;connectable=0;strokeColor=inherit;overflow=hidden;fillColor=none;top=0;left=0;bottom=0;right=0;pointerEvents=1;fontSize=16;" parent="OI1ush0Sum9m7_NIzRbb-7" vertex="1">
          <mxGeometry width="22" height="22" as="geometry">
            <mxRectangle width="22" height="22" as="alternateBounds" />
          </mxGeometry>
        </mxCell>
        <mxCell id="OI1ush0Sum9m7_NIzRbb-9" value="" style="shape=partialRectangle;html=1;whiteSpace=wrap;connectable=0;strokeColor=inherit;overflow=hidden;fillColor=none;top=0;left=0;bottom=0;right=0;pointerEvents=1;fontSize=16;" parent="OI1ush0Sum9m7_NIzRbb-7" vertex="1">
          <mxGeometry x="22" width="55" height="22" as="geometry">
            <mxRectangle width="55" height="22" as="alternateBounds" />
          </mxGeometry>
        </mxCell>
        <mxCell id="OI1ush0Sum9m7_NIzRbb-10" value="" style="shape=partialRectangle;html=1;whiteSpace=wrap;connectable=0;strokeColor=inherit;overflow=hidden;fillColor=none;top=0;left=0;bottom=0;right=0;pointerEvents=1;fontSize=16;" parent="OI1ush0Sum9m7_NIzRbb-7" vertex="1">
          <mxGeometry x="77" width="85" height="22" as="geometry">
            <mxRectangle width="85" height="22" as="alternateBounds" />
          </mxGeometry>
        </mxCell>
        <mxCell id="OI1ush0Sum9m7_NIzRbb-15" value="" style="shape=tableRow;horizontal=0;startSize=0;swimlaneHead=0;swimlaneBody=0;strokeColor=inherit;top=0;left=0;bottom=0;right=0;collapsible=0;dropTarget=0;fillColor=none;points=[[0,0.5],[1,0.5]];portConstraint=eastwest;fontSize=16;" parent="OI1ush0Sum9m7_NIzRbb-6" vertex="1">
          <mxGeometry y="22" width="161.92307692307708" height="21" as="geometry" />
        </mxCell>
        <mxCell id="OI1ush0Sum9m7_NIzRbb-16" value="" style="shape=partialRectangle;html=1;whiteSpace=wrap;connectable=0;strokeColor=inherit;overflow=hidden;fillColor=none;top=0;left=0;bottom=0;right=0;pointerEvents=1;fontSize=16;" parent="OI1ush0Sum9m7_NIzRbb-15" vertex="1">
          <mxGeometry width="22" height="21" as="geometry">
            <mxRectangle width="22" height="21" as="alternateBounds" />
          </mxGeometry>
        </mxCell>
        <mxCell id="OI1ush0Sum9m7_NIzRbb-17" value="" style="shape=partialRectangle;html=1;whiteSpace=wrap;connectable=0;strokeColor=inherit;overflow=hidden;fillColor=none;top=0;left=0;bottom=0;right=0;pointerEvents=1;fontSize=16;" parent="OI1ush0Sum9m7_NIzRbb-15" vertex="1">
          <mxGeometry x="22" width="55" height="21" as="geometry">
            <mxRectangle width="55" height="21" as="alternateBounds" />
          </mxGeometry>
        </mxCell>
        <mxCell id="OI1ush0Sum9m7_NIzRbb-18" value="" style="shape=partialRectangle;html=1;whiteSpace=wrap;connectable=0;strokeColor=inherit;overflow=hidden;fillColor=none;top=0;left=0;bottom=0;right=0;pointerEvents=1;fontSize=16;" parent="OI1ush0Sum9m7_NIzRbb-15" vertex="1">
          <mxGeometry x="77" width="85" height="21" as="geometry">
            <mxRectangle width="85" height="21" as="alternateBounds" />
          </mxGeometry>
        </mxCell>
        <mxCell id="OI1ush0Sum9m7_NIzRbb-3" value="&lt;font style=&quot;font-size: 7px;&quot;&gt;Comparator&lt;/font&gt;" style="rounded=0;whiteSpace=wrap;html=1;" parent="OI1ush0Sum9m7_NIzRbb-40" vertex="1">
          <mxGeometry x="10.997692307692319" y="146.66666666666669" width="50" height="30" as="geometry" />
        </mxCell>
        <mxCell id="OI1ush0Sum9m7_NIzRbb-116" value="4 bytes" style="text;html=1;align=center;verticalAlign=middle;resizable=0;points=[];autosize=1;strokeColor=none;fillColor=none;fontSize=5;" parent="OI1ush0Sum9m7_NIzRbb-40" vertex="1">
          <mxGeometry x="86.15769230769234" y="46.666666666666714" width="40" height="20" as="geometry" />
        </mxCell>
        <mxCell id="OI1ush0Sum9m7_NIzRbb-117" value="&lt;font style=&quot;font-size: 4px;&quot;&gt;1 bit&lt;/font&gt;" style="text;html=1;align=center;verticalAlign=middle;resizable=0;points=[];autosize=1;strokeColor=none;fillColor=none;fontSize=8;" parent="OI1ush0Sum9m7_NIzRbb-40" vertex="1">
          <mxGeometry x="7.307692307692321" y="46.66666666666667" width="30" height="20" as="geometry" />
        </mxCell>
        <mxCell id="OI1ush0Sum9m7_NIzRbb-118" value="" style="endArrow=none;html=1;rounded=0;" parent="OI1ush0Sum9m7_NIzRbb-40" edge="1">
          <mxGeometry width="50" height="50" relative="1" as="geometry">
            <mxPoint x="4.307692307692321" y="61.666666666666714" as="sourcePoint" />
            <mxPoint x="18.30769230769232" y="51.666666666666714" as="targetPoint" />
          </mxGeometry>
        </mxCell>
        <mxCell id="OI1ush0Sum9m7_NIzRbb-120" value="&lt;font style=&quot;font-size: 4px;&quot;&gt;29 bits&lt;/font&gt;" style="text;html=1;align=center;verticalAlign=middle;resizable=0;points=[];autosize=1;strokeColor=none;fillColor=none;fontSize=8;" parent="OI1ush0Sum9m7_NIzRbb-40" vertex="1">
          <mxGeometry x="46.15769230769234" y="46.666666666666686" width="40" height="20" as="geometry" />
        </mxCell>
        <mxCell id="OI1ush0Sum9m7_NIzRbb-119" value="" style="endArrow=none;html=1;rounded=0;" parent="OI1ush0Sum9m7_NIzRbb-40" edge="1">
          <mxGeometry width="50" height="50" relative="1" as="geometry">
            <mxPoint x="46.15769230769234" y="61.666666666666686" as="sourcePoint" />
            <mxPoint x="60.15769230769234" y="51.666666666666686" as="targetPoint" />
          </mxGeometry>
        </mxCell>
        <mxCell id="OI1ush0Sum9m7_NIzRbb-52" style="edgeStyle=orthogonalEdgeStyle;rounded=0;orthogonalLoop=1;jettySize=auto;html=1;exitX=0.32;exitY=1.007;exitDx=0;exitDy=0;exitPerimeter=0;" parent="1" edge="1" source="OI1ush0Sum9m7_NIzRbb-6">
          <mxGeometry relative="1" as="geometry">
            <mxPoint x="469.70769230769224" y="391.8493333333332" as="sourcePoint" />
            <mxPoint x="470" y="450" as="targetPoint" />
            <Array as="points">
              <mxPoint x="469" y="410" />
              <mxPoint x="470" y="410" />
            </Array>
          </mxGeometry>
        </mxCell>
        <mxCell id="OI1ush0Sum9m7_NIzRbb-53" value="" style="verticalLabelPosition=bottom;shadow=0;dashed=0;align=center;html=1;verticalAlign=top;shape=mxgraph.electrical.logic_gates.buffer2;rotation=90;" parent="1" vertex="1">
          <mxGeometry x="510.00000000000006" y="510" width="53.67" height="40" as="geometry" />
        </mxCell>
        <mxCell id="OI1ush0Sum9m7_NIzRbb-60" value="" style="endArrow=none;html=1;rounded=0;entryX=0.492;entryY=0.761;entryDx=0;entryDy=0;entryPerimeter=0;" parent="1" target="OI1ush0Sum9m7_NIzRbb-53" edge="1">
          <mxGeometry width="50" height="50" relative="1" as="geometry">
            <mxPoint x="430" y="530" as="sourcePoint" />
            <mxPoint x="564" y="531" as="targetPoint" />
            <Array as="points">
              <mxPoint x="490" y="530" />
            </Array>
          </mxGeometry>
        </mxCell>
        <mxCell id="OI1ush0Sum9m7_NIzRbb-64" value="" style="endArrow=none;html=1;rounded=0;" parent="1" edge="1">
          <mxGeometry width="50" height="50" relative="1" as="geometry">
            <mxPoint x="350" y="294.5" as="sourcePoint" />
            <mxPoint x="364" y="284.5" as="targetPoint" />
          </mxGeometry>
        </mxCell>
        <mxCell id="OI1ush0Sum9m7_NIzRbb-65" value="1 bit" style="text;html=1;align=center;verticalAlign=middle;resizable=0;points=[];autosize=1;strokeColor=none;fillColor=none;fontSize=8;" parent="1" vertex="1">
          <mxGeometry x="354" y="282.83" width="40" height="20" as="geometry" />
        </mxCell>
        <mxCell id="HSr_1RYZODbHexCvH2bF-85" style="edgeStyle=orthogonalEdgeStyle;rounded=0;orthogonalLoop=1;jettySize=auto;html=1;" edge="1" parent="1">
          <mxGeometry relative="1" as="geometry">
            <mxPoint x="440" y="450" as="targetPoint" />
            <mxPoint x="450" y="420" as="sourcePoint" />
          </mxGeometry>
        </mxCell>
        <mxCell id="OI1ush0Sum9m7_NIzRbb-68" value="29 bits" style="text;html=1;align=center;verticalAlign=middle;resizable=0;points=[];autosize=1;strokeColor=none;fillColor=none;fontSize=8;" parent="1" vertex="1">
          <mxGeometry x="280" y="285.5" width="50" height="20" as="geometry" />
        </mxCell>
        <mxCell id="OI1ush0Sum9m7_NIzRbb-69" value="" style="endArrow=none;html=1;rounded=0;" parent="1" edge="1">
          <mxGeometry width="50" height="50" relative="1" as="geometry">
            <mxPoint x="282" y="294.5" as="sourcePoint" />
            <mxPoint x="296" y="284.5" as="targetPoint" />
          </mxGeometry>
        </mxCell>
        <mxCell id="OI1ush0Sum9m7_NIzRbb-70" value="Hit" style="text;html=1;align=center;verticalAlign=middle;resizable=0;points=[];autosize=1;strokeColor=none;fillColor=none;" parent="1" vertex="1">
          <mxGeometry x="498" y="680" width="40" height="30" as="geometry" />
        </mxCell>
        <mxCell id="OI1ush0Sum9m7_NIzRbb-75" value="Data, 4 bytes to processor" style="text;html=1;align=center;verticalAlign=middle;resizable=0;points=[];autosize=1;strokeColor=none;fillColor=none;fontSize=10;" parent="1" vertex="1">
          <mxGeometry x="610.96" y="680" width="140" height="30" as="geometry" />
        </mxCell>
        <mxCell id="OI1ush0Sum9m7_NIzRbb-77" value="" style="edgeStyle=segmentEdgeStyle;endArrow=classic;html=1;curved=0;rounded=0;endSize=8;startSize=8;exitX=1;exitY=0.5;exitDx=0;exitDy=0;entryX=0.135;entryY=0.001;entryDx=0;entryDy=0;entryPerimeter=0;" parent="1" source="OI1ush0Sum9m7_NIzRbb-53" target="OI1ush0Sum9m7_NIzRbb-75" edge="1">
          <mxGeometry width="50" height="50" relative="1" as="geometry">
            <mxPoint x="555.8050000000001" y="556.835" as="sourcePoint" />
            <mxPoint x="636.9970270270271" y="680" as="targetPoint" />
            <Array as="points">
              <mxPoint x="560" y="557" />
              <mxPoint x="560" y="640" />
              <mxPoint x="630" y="640" />
              <mxPoint x="630" y="680" />
            </Array>
          </mxGeometry>
        </mxCell>
        <mxCell id="OI1ush0Sum9m7_NIzRbb-78" value="" style="verticalLabelPosition=bottom;shadow=0;dashed=0;align=center;html=1;verticalAlign=top;shape=mxgraph.electrical.logic_gates.logic_gate;operation=and;rotation=90;" parent="1" vertex="1">
          <mxGeometry x="394" y="544" width="55" height="33" as="geometry" />
        </mxCell>
        <mxCell id="OI1ush0Sum9m7_NIzRbb-80" value="" style="endArrow=none;html=1;rounded=0;entryX=0.421;entryY=0.992;entryDx=0;entryDy=0;exitX=0;exitY=0.25;exitDx=0;exitDy=0;exitPerimeter=0;entryPerimeter=0;" parent="1" source="OI1ush0Sum9m7_NIzRbb-78" edge="1">
          <mxGeometry width="50" height="50" relative="1" as="geometry">
            <mxPoint x="430.75" y="533" as="sourcePoint" />
            <mxPoint x="449.74" y="479.76" as="targetPoint" />
            <Array as="points">
              <mxPoint x="430" y="500" />
              <mxPoint x="450" y="500" />
            </Array>
          </mxGeometry>
        </mxCell>
        <mxCell id="HSr_1RYZODbHexCvH2bF-2" style="edgeStyle=orthogonalEdgeStyle;rounded=0;orthogonalLoop=1;jettySize=auto;html=1;entryX=-0.004;entryY=0.11;entryDx=0;entryDy=0;entryPerimeter=0;exitX=0.586;exitY=0.957;exitDx=0;exitDy=0;exitPerimeter=0;" edge="1" parent="1" source="OI1ush0Sum9m7_NIzRbb-34" target="OI1ush0Sum9m7_NIzRbb-6">
          <mxGeometry relative="1" as="geometry" />
        </mxCell>
        <mxCell id="HSr_1RYZODbHexCvH2bF-38" style="edgeStyle=orthogonalEdgeStyle;rounded=0;orthogonalLoop=1;jettySize=auto;html=1;exitX=0.73;exitY=0.945;exitDx=0;exitDy=0;entryX=0;entryY=0.5;entryDx=0;entryDy=0;endArrow=none;startFill=0;exitPerimeter=0;" edge="1" parent="1" source="HSr_1RYZODbHexCvH2bF-98" target="HSr_1RYZODbHexCvH2bF-66">
          <mxGeometry relative="1" as="geometry">
            <mxPoint x="741" y="449.5" as="targetPoint" />
            <mxPoint x="720.1346153846152" y="390.2222222222223" as="sourcePoint" />
            <Array as="points">
              <mxPoint x="720" y="345" />
              <mxPoint x="720" y="450" />
              <mxPoint x="743" y="450" />
            </Array>
          </mxGeometry>
        </mxCell>
        <mxCell id="HSr_1RYZODbHexCvH2bF-59" style="edgeStyle=orthogonalEdgeStyle;rounded=0;orthogonalLoop=1;jettySize=auto;html=1;exitX=0.296;exitY=0.959;exitDx=0;exitDy=0;exitPerimeter=0;" edge="1" parent="1" source="HSr_1RYZODbHexCvH2bF-98">
          <mxGeometry relative="1" as="geometry">
            <mxPoint x="647.5930769230768" y="390.9463333333332" as="sourcePoint" />
            <mxPoint x="671" y="449.5" as="targetPoint" />
            <Array as="points">
              <mxPoint x="648" y="409" />
              <mxPoint x="671" y="409" />
            </Array>
          </mxGeometry>
        </mxCell>
        <mxCell id="HSr_1RYZODbHexCvH2bF-62" value="&lt;font style=&quot;font-size: 7px;&quot;&gt;Comparator&lt;/font&gt;" style="rounded=0;whiteSpace=wrap;html=1;" vertex="1" parent="1">
          <mxGeometry x="637" y="450" width="50" height="30" as="geometry" />
        </mxCell>
        <mxCell id="HSr_1RYZODbHexCvH2bF-63" style="edgeStyle=orthogonalEdgeStyle;rounded=0;orthogonalLoop=1;jettySize=auto;html=1;exitX=0.214;exitY=1.019;exitDx=0;exitDy=0;exitPerimeter=0;entryX=0.25;entryY=0;entryDx=0;entryDy=0;" edge="1" parent="1" source="OI1ush0Sum9m7_NIzRbb-34" target="HSr_1RYZODbHexCvH2bF-62">
          <mxGeometry relative="1" as="geometry">
            <mxPoint x="590" y="430" as="targetPoint" />
            <Array as="points">
              <mxPoint x="289" y="420" />
              <mxPoint x="650" y="420" />
              <mxPoint x="650" y="430" />
            </Array>
          </mxGeometry>
        </mxCell>
        <mxCell id="OI1ush0Sum9m7_NIzRbb-28" style="edgeStyle=orthogonalEdgeStyle;rounded=0;orthogonalLoop=1;jettySize=auto;html=1;exitX=0.736;exitY=1.012;exitDx=0;exitDy=0;exitPerimeter=0;entryX=0;entryY=0.5;entryDx=0;entryDy=0;endArrow=none;startFill=0;" parent="1" source="OI1ush0Sum9m7_NIzRbb-15" edge="1" target="OI1ush0Sum9m7_NIzRbb-53">
          <mxGeometry relative="1" as="geometry">
            <mxPoint x="540" y="500" as="targetPoint" />
            <mxPoint x="526.9976923076923" y="392.2222222222222" as="sourcePoint" />
            <Array as="points">
              <mxPoint x="537" y="392" />
              <mxPoint x="537" y="392" />
            </Array>
          </mxGeometry>
        </mxCell>
        <mxCell id="HSr_1RYZODbHexCvH2bF-66" value="" style="verticalLabelPosition=bottom;shadow=0;dashed=0;align=center;html=1;verticalAlign=top;shape=mxgraph.electrical.logic_gates.buffer2;rotation=90;" vertex="1" parent="1">
          <mxGeometry x="716" y="509.995" width="53.67" height="40" as="geometry" />
        </mxCell>
        <mxCell id="HSr_1RYZODbHexCvH2bF-67" value="" style="endArrow=none;html=1;rounded=0;entryX=0.492;entryY=0.761;entryDx=0;entryDy=0;entryPerimeter=0;" edge="1" parent="1" target="HSr_1RYZODbHexCvH2bF-66">
          <mxGeometry width="50" height="50" relative="1" as="geometry">
            <mxPoint x="630" y="530" as="sourcePoint" />
            <mxPoint x="770" y="530.995" as="targetPoint" />
            <Array as="points">
              <mxPoint x="696" y="529.995" />
            </Array>
          </mxGeometry>
        </mxCell>
        <mxCell id="HSr_1RYZODbHexCvH2bF-69" value="" style="edgeStyle=segmentEdgeStyle;endArrow=classic;html=1;curved=0;rounded=0;endSize=8;startSize=8;exitX=1;exitY=0.5;exitDx=0;exitDy=0;" edge="1" parent="1" source="HSr_1RYZODbHexCvH2bF-66">
          <mxGeometry width="50" height="50" relative="1" as="geometry">
            <mxPoint x="775" y="559.995" as="sourcePoint" />
            <mxPoint x="690" y="680" as="targetPoint" />
            <Array as="points">
              <mxPoint x="671" y="557" />
              <mxPoint x="671" y="620" />
              <mxPoint x="690" y="620" />
              <mxPoint x="690" y="680" />
            </Array>
          </mxGeometry>
        </mxCell>
        <mxCell id="HSr_1RYZODbHexCvH2bF-71" value="" style="verticalLabelPosition=bottom;shadow=0;dashed=0;align=center;html=1;verticalAlign=top;shape=mxgraph.electrical.logic_gates.logic_gate;operation=and;rotation=90;" vertex="1" parent="1">
          <mxGeometry x="594" y="543.005" width="55" height="33" as="geometry" />
        </mxCell>
        <mxCell id="HSr_1RYZODbHexCvH2bF-74" value="" style="endArrow=none;html=1;rounded=0;exitX=0;exitY=0.25;exitDx=0;exitDy=0;exitPerimeter=0;entryX=0.453;entryY=0.991;entryDx=0;entryDy=0;entryPerimeter=0;" edge="1" parent="1" target="HSr_1RYZODbHexCvH2bF-62">
          <mxGeometry width="50" height="50" relative="1" as="geometry">
            <mxPoint x="630" y="533.24" as="sourcePoint" />
            <mxPoint x="660" y="480" as="targetPoint" />
            <Array as="points">
              <mxPoint x="630" y="500.24" />
              <mxPoint x="650" y="500.24" />
              <mxPoint x="660" y="500" />
            </Array>
          </mxGeometry>
        </mxCell>
        <mxCell id="HSr_1RYZODbHexCvH2bF-76" value="" style="verticalLabelPosition=bottom;shadow=0;dashed=0;align=center;html=1;verticalAlign=top;shape=mxgraph.electrical.logic_gates.logic_gate;operation=or;rotation=90;" vertex="1" parent="1">
          <mxGeometry x="494.5" y="650" width="47" height="30" as="geometry" />
        </mxCell>
        <mxCell id="HSr_1RYZODbHexCvH2bF-81" style="rounded=0;orthogonalLoop=1;jettySize=auto;html=1;entryX=0;entryY=0.25;entryDx=0;entryDy=0;entryPerimeter=0;exitX=1;exitY=0.5;exitDx=0;exitDy=0;exitPerimeter=0;endArrow=none;startFill=0;edgeStyle=orthogonalEdgeStyle;" edge="1" parent="1" source="HSr_1RYZODbHexCvH2bF-71" target="HSr_1RYZODbHexCvH2bF-76">
          <mxGeometry relative="1" as="geometry">
            <mxPoint x="610" y="590" as="sourcePoint" />
            <Array as="points">
              <mxPoint x="621" y="590" />
              <mxPoint x="525" y="590" />
            </Array>
          </mxGeometry>
        </mxCell>
        <mxCell id="HSr_1RYZODbHexCvH2bF-82" style="edgeStyle=orthogonalEdgeStyle;rounded=0;orthogonalLoop=1;jettySize=auto;html=1;entryX=0;entryY=0.75;entryDx=0;entryDy=0;entryPerimeter=0;endArrow=none;startFill=0;exitX=1;exitY=0.5;exitDx=0;exitDy=0;exitPerimeter=0;" edge="1" parent="1" source="OI1ush0Sum9m7_NIzRbb-78" target="HSr_1RYZODbHexCvH2bF-76">
          <mxGeometry relative="1" as="geometry">
            <Array as="points">
              <mxPoint x="422" y="600" />
              <mxPoint x="510" y="600" />
            </Array>
          </mxGeometry>
        </mxCell>
        <mxCell id="wfz9u2H3TXvYoYwYF7GN-1" style="edgeStyle=orthogonalEdgeStyle;rounded=0;orthogonalLoop=1;jettySize=auto;html=1;endArrow=none;startFill=0;exitX=0.057;exitY=0.995;exitDx=0;exitDy=0;exitPerimeter=0;entryX=0;entryY=0.75;entryDx=0;entryDy=0;entryPerimeter=0;" edge="1" parent="1" source="OI1ush0Sum9m7_NIzRbb-15" target="OI1ush0Sum9m7_NIzRbb-78">
          <mxGeometry relative="1" as="geometry">
            <mxPoint x="410" y="530" as="targetPoint" />
            <Array as="points">
              <mxPoint x="427" y="430" />
              <mxPoint x="413" y="430" />
              <mxPoint x="413" y="533" />
            </Array>
          </mxGeometry>
        </mxCell>
        <mxCell id="HSr_1RYZODbHexCvH2bF-90" value="Valid" style="text;html=1;align=center;verticalAlign=middle;resizable=0;points=[];autosize=1;strokeColor=none;fillColor=none;fontSize=8;" vertex="1" parent="1">
          <mxGeometry x="580" y="285.5" width="40" height="20" as="geometry" />
        </mxCell>
        <mxCell id="HSr_1RYZODbHexCvH2bF-91" value="Tag" style="text;html=1;align=center;verticalAlign=middle;resizable=0;points=[];autosize=1;strokeColor=none;fillColor=none;fontSize=8;" vertex="1" parent="1">
          <mxGeometry x="628.3094871794872" y="285.5" width="40" height="20" as="geometry" />
        </mxCell>
        <mxCell id="HSr_1RYZODbHexCvH2bF-92" value="Data" style="text;html=1;align=center;verticalAlign=middle;resizable=0;points=[];autosize=1;strokeColor=none;fillColor=none;fontSize=8;" vertex="1" parent="1">
          <mxGeometry x="692.3061538461538" y="285.5" width="40" height="20" as="geometry" />
        </mxCell>
        <mxCell id="HSr_1RYZODbHexCvH2bF-93" value="" style="shape=table;startSize=0;container=1;collapsible=0;childLayout=tableLayout;fontSize=16;" vertex="1" parent="1">
          <mxGeometry x="600.0023076923076" y="302.8333333333333" width="161.92307692307708" height="42.88888888888911" as="geometry" />
        </mxCell>
        <mxCell id="HSr_1RYZODbHexCvH2bF-94" value="" style="shape=tableRow;horizontal=0;startSize=0;swimlaneHead=0;swimlaneBody=0;strokeColor=inherit;top=0;left=0;bottom=0;right=0;collapsible=0;dropTarget=0;fillColor=none;points=[[0,0.5],[1,0.5]];portConstraint=eastwest;fontSize=16;" vertex="1" parent="HSr_1RYZODbHexCvH2bF-93">
          <mxGeometry width="161.92307692307708" height="22" as="geometry" />
        </mxCell>
        <mxCell id="HSr_1RYZODbHexCvH2bF-95" value="" style="shape=partialRectangle;html=1;whiteSpace=wrap;connectable=0;strokeColor=inherit;overflow=hidden;fillColor=none;top=0;left=0;bottom=0;right=0;pointerEvents=1;fontSize=16;" vertex="1" parent="HSr_1RYZODbHexCvH2bF-94">
          <mxGeometry width="22" height="22" as="geometry">
            <mxRectangle width="22" height="22" as="alternateBounds" />
          </mxGeometry>
        </mxCell>
        <mxCell id="HSr_1RYZODbHexCvH2bF-96" value="" style="shape=partialRectangle;html=1;whiteSpace=wrap;connectable=0;strokeColor=inherit;overflow=hidden;fillColor=none;top=0;left=0;bottom=0;right=0;pointerEvents=1;fontSize=16;" vertex="1" parent="HSr_1RYZODbHexCvH2bF-94">
          <mxGeometry x="22" width="55" height="22" as="geometry">
            <mxRectangle width="55" height="22" as="alternateBounds" />
          </mxGeometry>
        </mxCell>
        <mxCell id="HSr_1RYZODbHexCvH2bF-97" value="" style="shape=partialRectangle;html=1;whiteSpace=wrap;connectable=0;strokeColor=inherit;overflow=hidden;fillColor=none;top=0;left=0;bottom=0;right=0;pointerEvents=1;fontSize=16;" vertex="1" parent="HSr_1RYZODbHexCvH2bF-94">
          <mxGeometry x="77" width="85" height="22" as="geometry">
            <mxRectangle width="85" height="22" as="alternateBounds" />
          </mxGeometry>
        </mxCell>
        <mxCell id="HSr_1RYZODbHexCvH2bF-98" value="" style="shape=tableRow;horizontal=0;startSize=0;swimlaneHead=0;swimlaneBody=0;strokeColor=inherit;top=0;left=0;bottom=0;right=0;collapsible=0;dropTarget=0;fillColor=none;points=[[0,0.5],[1,0.5]];portConstraint=eastwest;fontSize=16;" vertex="1" parent="HSr_1RYZODbHexCvH2bF-93">
          <mxGeometry y="22" width="161.92307692307708" height="21" as="geometry" />
        </mxCell>
        <mxCell id="HSr_1RYZODbHexCvH2bF-99" value="" style="shape=partialRectangle;html=1;whiteSpace=wrap;connectable=0;strokeColor=inherit;overflow=hidden;fillColor=none;top=0;left=0;bottom=0;right=0;pointerEvents=1;fontSize=16;" vertex="1" parent="HSr_1RYZODbHexCvH2bF-98">
          <mxGeometry width="22" height="21" as="geometry">
            <mxRectangle width="22" height="21" as="alternateBounds" />
          </mxGeometry>
        </mxCell>
        <mxCell id="HSr_1RYZODbHexCvH2bF-100" value="" style="shape=partialRectangle;html=1;whiteSpace=wrap;connectable=0;strokeColor=inherit;overflow=hidden;fillColor=none;top=0;left=0;bottom=0;right=0;pointerEvents=1;fontSize=16;" vertex="1" parent="HSr_1RYZODbHexCvH2bF-98">
          <mxGeometry x="22" width="55" height="21" as="geometry">
            <mxRectangle width="55" height="21" as="alternateBounds" />
          </mxGeometry>
        </mxCell>
        <mxCell id="HSr_1RYZODbHexCvH2bF-101" value="" style="shape=partialRectangle;html=1;whiteSpace=wrap;connectable=0;strokeColor=inherit;overflow=hidden;fillColor=none;top=0;left=0;bottom=0;right=0;pointerEvents=1;fontSize=16;" vertex="1" parent="HSr_1RYZODbHexCvH2bF-98">
          <mxGeometry x="77" width="85" height="21" as="geometry">
            <mxRectangle width="85" height="21" as="alternateBounds" />
          </mxGeometry>
        </mxCell>
        <mxCell id="HSr_1RYZODbHexCvH2bF-102" value="4 bytes" style="text;html=1;align=center;verticalAlign=middle;resizable=0;points=[];autosize=1;strokeColor=none;fillColor=none;fontSize=5;" vertex="1" parent="1">
          <mxGeometry x="686.16" y="349.5" width="40" height="20" as="geometry" />
        </mxCell>
        <mxCell id="HSr_1RYZODbHexCvH2bF-103" value="&lt;font style=&quot;font-size: 4px;&quot;&gt;1 bit&lt;/font&gt;" style="text;html=1;align=center;verticalAlign=middle;resizable=0;points=[];autosize=1;strokeColor=none;fillColor=none;fontSize=8;" vertex="1" parent="1">
          <mxGeometry x="607.31" y="349.5" width="30" height="20" as="geometry" />
        </mxCell>
        <mxCell id="HSr_1RYZODbHexCvH2bF-104" value="" style="endArrow=none;html=1;rounded=0;" edge="1" parent="1">
          <mxGeometry width="50" height="50" relative="1" as="geometry">
            <mxPoint x="604.31" y="364.5" as="sourcePoint" />
            <mxPoint x="618.31" y="354.5" as="targetPoint" />
          </mxGeometry>
        </mxCell>
        <mxCell id="HSr_1RYZODbHexCvH2bF-105" value="&lt;font style=&quot;font-size: 4px;&quot;&gt;29 bits&lt;/font&gt;" style="text;html=1;align=center;verticalAlign=middle;resizable=0;points=[];autosize=1;strokeColor=none;fillColor=none;fontSize=8;" vertex="1" parent="1">
          <mxGeometry x="642" y="349.5" width="40" height="20" as="geometry" />
        </mxCell>
        <mxCell id="HSr_1RYZODbHexCvH2bF-106" value="" style="endArrow=none;html=1;rounded=0;" edge="1" parent="1">
          <mxGeometry width="50" height="50" relative="1" as="geometry">
            <mxPoint x="643" y="364.5" as="sourcePoint" />
            <mxPoint x="657" y="354.5" as="targetPoint" />
          </mxGeometry>
        </mxCell>
        <mxCell id="HSr_1RYZODbHexCvH2bF-107" value="Valid" style="text;html=1;align=center;verticalAlign=middle;resizable=0;points=[];autosize=1;strokeColor=none;fillColor=none;fontSize=8;" vertex="1" parent="1">
          <mxGeometry x="771.31" y="285.5" width="40" height="20" as="geometry" />
        </mxCell>
        <mxCell id="HSr_1RYZODbHexCvH2bF-108" value="Tag" style="text;html=1;align=center;verticalAlign=middle;resizable=0;points=[];autosize=1;strokeColor=none;fillColor=none;fontSize=8;" vertex="1" parent="1">
          <mxGeometry x="808.3094871794872" y="285.5" width="40" height="20" as="geometry" />
        </mxCell>
        <mxCell id="HSr_1RYZODbHexCvH2bF-109" value="Data" style="text;html=1;align=center;verticalAlign=middle;resizable=0;points=[];autosize=1;strokeColor=none;fillColor=none;fontSize=8;" vertex="1" parent="1">
          <mxGeometry x="872.3061538461538" y="285.5" width="40" height="20" as="geometry" />
        </mxCell>
        <mxCell id="HSr_1RYZODbHexCvH2bF-110" value="" style="shape=table;startSize=0;container=1;collapsible=0;childLayout=tableLayout;fontSize=16;" vertex="1" parent="1">
          <mxGeometry x="780.0023076923076" y="302.8333333333333" width="161.92307692307708" height="42.88888888888911" as="geometry" />
        </mxCell>
        <mxCell id="HSr_1RYZODbHexCvH2bF-111" value="" style="shape=tableRow;horizontal=0;startSize=0;swimlaneHead=0;swimlaneBody=0;strokeColor=inherit;top=0;left=0;bottom=0;right=0;collapsible=0;dropTarget=0;fillColor=none;points=[[0,0.5],[1,0.5]];portConstraint=eastwest;fontSize=16;" vertex="1" parent="HSr_1RYZODbHexCvH2bF-110">
          <mxGeometry width="161.92307692307708" height="22" as="geometry" />
        </mxCell>
        <mxCell id="HSr_1RYZODbHexCvH2bF-112" value="" style="shape=partialRectangle;html=1;whiteSpace=wrap;connectable=0;strokeColor=inherit;overflow=hidden;fillColor=none;top=0;left=0;bottom=0;right=0;pointerEvents=1;fontSize=16;" vertex="1" parent="HSr_1RYZODbHexCvH2bF-111">
          <mxGeometry width="22" height="22" as="geometry">
            <mxRectangle width="22" height="22" as="alternateBounds" />
          </mxGeometry>
        </mxCell>
        <mxCell id="HSr_1RYZODbHexCvH2bF-113" value="" style="shape=partialRectangle;html=1;whiteSpace=wrap;connectable=0;strokeColor=inherit;overflow=hidden;fillColor=none;top=0;left=0;bottom=0;right=0;pointerEvents=1;fontSize=16;" vertex="1" parent="HSr_1RYZODbHexCvH2bF-111">
          <mxGeometry x="22" width="55" height="22" as="geometry">
            <mxRectangle width="55" height="22" as="alternateBounds" />
          </mxGeometry>
        </mxCell>
        <mxCell id="HSr_1RYZODbHexCvH2bF-114" value="" style="shape=partialRectangle;html=1;whiteSpace=wrap;connectable=0;strokeColor=inherit;overflow=hidden;fillColor=none;top=0;left=0;bottom=0;right=0;pointerEvents=1;fontSize=16;" vertex="1" parent="HSr_1RYZODbHexCvH2bF-111">
          <mxGeometry x="77" width="85" height="22" as="geometry">
            <mxRectangle width="85" height="22" as="alternateBounds" />
          </mxGeometry>
        </mxCell>
        <mxCell id="HSr_1RYZODbHexCvH2bF-115" value="" style="shape=tableRow;horizontal=0;startSize=0;swimlaneHead=0;swimlaneBody=0;strokeColor=inherit;top=0;left=0;bottom=0;right=0;collapsible=0;dropTarget=0;fillColor=none;points=[[0,0.5],[1,0.5]];portConstraint=eastwest;fontSize=16;" vertex="1" parent="HSr_1RYZODbHexCvH2bF-110">
          <mxGeometry y="22" width="161.92307692307708" height="21" as="geometry" />
        </mxCell>
        <mxCell id="HSr_1RYZODbHexCvH2bF-116" value="" style="shape=partialRectangle;html=1;whiteSpace=wrap;connectable=0;strokeColor=inherit;overflow=hidden;fillColor=none;top=0;left=0;bottom=0;right=0;pointerEvents=1;fontSize=16;" vertex="1" parent="HSr_1RYZODbHexCvH2bF-115">
          <mxGeometry width="22" height="21" as="geometry">
            <mxRectangle width="22" height="21" as="alternateBounds" />
          </mxGeometry>
        </mxCell>
        <mxCell id="HSr_1RYZODbHexCvH2bF-117" value="" style="shape=partialRectangle;html=1;whiteSpace=wrap;connectable=0;strokeColor=inherit;overflow=hidden;fillColor=none;top=0;left=0;bottom=0;right=0;pointerEvents=1;fontSize=16;" vertex="1" parent="HSr_1RYZODbHexCvH2bF-115">
          <mxGeometry x="22" width="55" height="21" as="geometry">
            <mxRectangle width="55" height="21" as="alternateBounds" />
          </mxGeometry>
        </mxCell>
        <mxCell id="HSr_1RYZODbHexCvH2bF-118" value="" style="shape=partialRectangle;html=1;whiteSpace=wrap;connectable=0;strokeColor=inherit;overflow=hidden;fillColor=none;top=0;left=0;bottom=0;right=0;pointerEvents=1;fontSize=16;" vertex="1" parent="HSr_1RYZODbHexCvH2bF-115">
          <mxGeometry x="77" width="85" height="21" as="geometry">
            <mxRectangle width="85" height="21" as="alternateBounds" />
          </mxGeometry>
        </mxCell>
        <mxCell id="HSr_1RYZODbHexCvH2bF-119" value="4 bytes" style="text;html=1;align=center;verticalAlign=middle;resizable=0;points=[];autosize=1;strokeColor=none;fillColor=none;fontSize=5;" vertex="1" parent="1">
          <mxGeometry x="866.16" y="349.5" width="40" height="20" as="geometry" />
        </mxCell>
        <mxCell id="HSr_1RYZODbHexCvH2bF-120" value="&lt;font style=&quot;font-size: 4px;&quot;&gt;1 bit&lt;/font&gt;" style="text;html=1;align=center;verticalAlign=middle;resizable=0;points=[];autosize=1;strokeColor=none;fillColor=none;fontSize=8;" vertex="1" parent="1">
          <mxGeometry x="787.31" y="349.5" width="30" height="20" as="geometry" />
        </mxCell>
        <mxCell id="HSr_1RYZODbHexCvH2bF-121" value="" style="endArrow=none;html=1;rounded=0;" edge="1" parent="1">
          <mxGeometry width="50" height="50" relative="1" as="geometry">
            <mxPoint x="784.31" y="364.5" as="sourcePoint" />
            <mxPoint x="798.31" y="354.5" as="targetPoint" />
          </mxGeometry>
        </mxCell>
        <mxCell id="HSr_1RYZODbHexCvH2bF-122" value="&lt;font style=&quot;font-size: 4px;&quot;&gt;29 bits&lt;/font&gt;" style="text;html=1;align=center;verticalAlign=middle;resizable=0;points=[];autosize=1;strokeColor=none;fillColor=none;fontSize=8;" vertex="1" parent="1">
          <mxGeometry x="826.16" y="349.5" width="40" height="20" as="geometry" />
        </mxCell>
        <mxCell id="HSr_1RYZODbHexCvH2bF-123" value="" style="endArrow=none;html=1;rounded=0;" edge="1" parent="1">
          <mxGeometry width="50" height="50" relative="1" as="geometry">
            <mxPoint x="819.16" y="364.5" as="sourcePoint" />
            <mxPoint x="833.16" y="354.5" as="targetPoint" />
          </mxGeometry>
        </mxCell>
        <mxCell id="HSr_1RYZODbHexCvH2bF-124" value="Valid" style="text;html=1;align=center;verticalAlign=middle;resizable=0;points=[];autosize=1;strokeColor=none;fillColor=none;fontSize=8;" vertex="1" parent="1">
          <mxGeometry x="950" y="285.5" width="40" height="20" as="geometry" />
        </mxCell>
        <mxCell id="HSr_1RYZODbHexCvH2bF-125" value="Tag" style="text;html=1;align=center;verticalAlign=middle;resizable=0;points=[];autosize=1;strokeColor=none;fillColor=none;fontSize=8;" vertex="1" parent="1">
          <mxGeometry x="986.9994871794872" y="285.5" width="40" height="20" as="geometry" />
        </mxCell>
        <mxCell id="HSr_1RYZODbHexCvH2bF-126" value="Data" style="text;html=1;align=center;verticalAlign=middle;resizable=0;points=[];autosize=1;strokeColor=none;fillColor=none;fontSize=8;" vertex="1" parent="1">
          <mxGeometry x="1050.996153846154" y="285.5" width="40" height="20" as="geometry" />
        </mxCell>
        <mxCell id="HSr_1RYZODbHexCvH2bF-127" value="" style="shape=table;startSize=0;container=1;collapsible=0;childLayout=tableLayout;fontSize=16;" vertex="1" parent="1">
          <mxGeometry x="958.6923076923076" y="302.8333333333333" width="161.92307692307708" height="42.88888888888911" as="geometry" />
        </mxCell>
        <mxCell id="HSr_1RYZODbHexCvH2bF-128" value="" style="shape=tableRow;horizontal=0;startSize=0;swimlaneHead=0;swimlaneBody=0;strokeColor=inherit;top=0;left=0;bottom=0;right=0;collapsible=0;dropTarget=0;fillColor=none;points=[[0,0.5],[1,0.5]];portConstraint=eastwest;fontSize=16;" vertex="1" parent="HSr_1RYZODbHexCvH2bF-127">
          <mxGeometry width="161.92307692307708" height="22" as="geometry" />
        </mxCell>
        <mxCell id="HSr_1RYZODbHexCvH2bF-129" value="" style="shape=partialRectangle;html=1;whiteSpace=wrap;connectable=0;strokeColor=inherit;overflow=hidden;fillColor=none;top=0;left=0;bottom=0;right=0;pointerEvents=1;fontSize=16;" vertex="1" parent="HSr_1RYZODbHexCvH2bF-128">
          <mxGeometry width="22" height="22" as="geometry">
            <mxRectangle width="22" height="22" as="alternateBounds" />
          </mxGeometry>
        </mxCell>
        <mxCell id="HSr_1RYZODbHexCvH2bF-130" value="" style="shape=partialRectangle;html=1;whiteSpace=wrap;connectable=0;strokeColor=inherit;overflow=hidden;fillColor=none;top=0;left=0;bottom=0;right=0;pointerEvents=1;fontSize=16;" vertex="1" parent="HSr_1RYZODbHexCvH2bF-128">
          <mxGeometry x="22" width="55" height="22" as="geometry">
            <mxRectangle width="55" height="22" as="alternateBounds" />
          </mxGeometry>
        </mxCell>
        <mxCell id="HSr_1RYZODbHexCvH2bF-131" value="" style="shape=partialRectangle;html=1;whiteSpace=wrap;connectable=0;strokeColor=inherit;overflow=hidden;fillColor=none;top=0;left=0;bottom=0;right=0;pointerEvents=1;fontSize=16;" vertex="1" parent="HSr_1RYZODbHexCvH2bF-128">
          <mxGeometry x="77" width="85" height="22" as="geometry">
            <mxRectangle width="85" height="22" as="alternateBounds" />
          </mxGeometry>
        </mxCell>
        <mxCell id="HSr_1RYZODbHexCvH2bF-132" value="" style="shape=tableRow;horizontal=0;startSize=0;swimlaneHead=0;swimlaneBody=0;strokeColor=inherit;top=0;left=0;bottom=0;right=0;collapsible=0;dropTarget=0;fillColor=none;points=[[0,0.5],[1,0.5]];portConstraint=eastwest;fontSize=16;" vertex="1" parent="HSr_1RYZODbHexCvH2bF-127">
          <mxGeometry y="22" width="161.92307692307708" height="21" as="geometry" />
        </mxCell>
        <mxCell id="HSr_1RYZODbHexCvH2bF-133" value="" style="shape=partialRectangle;html=1;whiteSpace=wrap;connectable=0;strokeColor=inherit;overflow=hidden;fillColor=none;top=0;left=0;bottom=0;right=0;pointerEvents=1;fontSize=16;" vertex="1" parent="HSr_1RYZODbHexCvH2bF-132">
          <mxGeometry width="22" height="21" as="geometry">
            <mxRectangle width="22" height="21" as="alternateBounds" />
          </mxGeometry>
        </mxCell>
        <mxCell id="HSr_1RYZODbHexCvH2bF-134" value="" style="shape=partialRectangle;html=1;whiteSpace=wrap;connectable=0;strokeColor=inherit;overflow=hidden;fillColor=none;top=0;left=0;bottom=0;right=0;pointerEvents=1;fontSize=16;" vertex="1" parent="HSr_1RYZODbHexCvH2bF-132">
          <mxGeometry x="22" width="55" height="21" as="geometry">
            <mxRectangle width="55" height="21" as="alternateBounds" />
          </mxGeometry>
        </mxCell>
        <mxCell id="HSr_1RYZODbHexCvH2bF-135" value="" style="shape=partialRectangle;html=1;whiteSpace=wrap;connectable=0;strokeColor=inherit;overflow=hidden;fillColor=none;top=0;left=0;bottom=0;right=0;pointerEvents=1;fontSize=16;" vertex="1" parent="HSr_1RYZODbHexCvH2bF-132">
          <mxGeometry x="77" width="85" height="21" as="geometry">
            <mxRectangle width="85" height="21" as="alternateBounds" />
          </mxGeometry>
        </mxCell>
        <mxCell id="HSr_1RYZODbHexCvH2bF-136" value="4 bytes" style="text;html=1;align=center;verticalAlign=middle;resizable=0;points=[];autosize=1;strokeColor=none;fillColor=none;fontSize=5;" vertex="1" parent="1">
          <mxGeometry x="1044.85" y="349.5" width="40" height="20" as="geometry" />
        </mxCell>
        <mxCell id="HSr_1RYZODbHexCvH2bF-137" value="&lt;font style=&quot;font-size: 4px;&quot;&gt;1 bit&lt;/font&gt;" style="text;html=1;align=center;verticalAlign=middle;resizable=0;points=[];autosize=1;strokeColor=none;fillColor=none;fontSize=8;" vertex="1" parent="1">
          <mxGeometry x="966" y="349.5" width="30" height="20" as="geometry" />
        </mxCell>
        <mxCell id="HSr_1RYZODbHexCvH2bF-138" value="" style="endArrow=none;html=1;rounded=0;" edge="1" parent="1">
          <mxGeometry width="50" height="50" relative="1" as="geometry">
            <mxPoint x="963" y="364.5" as="sourcePoint" />
            <mxPoint x="977" y="354.5" as="targetPoint" />
          </mxGeometry>
        </mxCell>
        <mxCell id="HSr_1RYZODbHexCvH2bF-139" value="&lt;font style=&quot;font-size: 4px;&quot;&gt;29 bits&lt;/font&gt;" style="text;html=1;align=center;verticalAlign=middle;resizable=0;points=[];autosize=1;strokeColor=none;fillColor=none;fontSize=8;" vertex="1" parent="1">
          <mxGeometry x="1000.8499999999999" y="349.5" width="40" height="20" as="geometry" />
        </mxCell>
        <mxCell id="HSr_1RYZODbHexCvH2bF-140" value="" style="endArrow=none;html=1;rounded=0;" edge="1" parent="1">
          <mxGeometry width="50" height="50" relative="1" as="geometry">
            <mxPoint x="997.8499999999999" y="364.5" as="sourcePoint" />
            <mxPoint x="1011.8499999999999" y="354.5" as="targetPoint" />
          </mxGeometry>
        </mxCell>
        <mxCell id="HSr_1RYZODbHexCvH2bF-141" style="edgeStyle=orthogonalEdgeStyle;rounded=0;orthogonalLoop=1;jettySize=auto;html=1;entryX=0;entryY=0.75;entryDx=0;entryDy=0;entryPerimeter=0;exitX=0.064;exitY=1.006;exitDx=0;exitDy=0;exitPerimeter=0;endArrow=none;startFill=0;" edge="1" parent="1" source="HSr_1RYZODbHexCvH2bF-98" target="HSr_1RYZODbHexCvH2bF-71">
          <mxGeometry relative="1" as="geometry" />
        </mxCell>
        <mxCell id="HSr_1RYZODbHexCvH2bF-142" value="&lt;font style=&quot;font-size: 7px;&quot;&gt;Comparator&lt;/font&gt;" style="rounded=0;whiteSpace=wrap;html=1;" vertex="1" parent="1">
          <mxGeometry x="806" y="450" width="50" height="30" as="geometry" />
        </mxCell>
        <mxCell id="HSr_1RYZODbHexCvH2bF-143" value="" style="verticalLabelPosition=bottom;shadow=0;dashed=0;align=center;html=1;verticalAlign=top;shape=mxgraph.electrical.logic_gates.buffer2;rotation=90;" vertex="1" parent="1">
          <mxGeometry x="887.31" y="510" width="53.67" height="40" as="geometry" />
        </mxCell>
        <mxCell id="HSr_1RYZODbHexCvH2bF-144" value="" style="endArrow=none;html=1;rounded=0;entryX=0.492;entryY=0.761;entryDx=0;entryDy=0;entryPerimeter=0;" edge="1" parent="1" target="HSr_1RYZODbHexCvH2bF-143">
          <mxGeometry width="50" height="50" relative="1" as="geometry">
            <mxPoint x="807.31" y="530" as="sourcePoint" />
            <mxPoint x="941.31" y="531" as="targetPoint" />
            <Array as="points">
              <mxPoint x="867.31" y="530" />
            </Array>
          </mxGeometry>
        </mxCell>
        <mxCell id="HSr_1RYZODbHexCvH2bF-147" value="" style="edgeStyle=segmentEdgeStyle;endArrow=classic;html=1;curved=0;rounded=0;endSize=8;startSize=8;exitX=1;exitY=0.5;exitDx=0;exitDy=0;" edge="1" parent="1" source="HSr_1RYZODbHexCvH2bF-143" target="OI1ush0Sum9m7_NIzRbb-75">
          <mxGeometry width="50" height="50" relative="1" as="geometry">
            <mxPoint x="933.115" y="556.835" as="sourcePoint" />
            <mxPoint x="684" y="679" as="targetPoint" />
            <Array as="points">
              <mxPoint x="914" y="640" />
              <mxPoint x="660" y="640" />
            </Array>
          </mxGeometry>
        </mxCell>
        <mxCell id="HSr_1RYZODbHexCvH2bF-148" value="" style="verticalLabelPosition=bottom;shadow=0;dashed=0;align=center;html=1;verticalAlign=top;shape=mxgraph.electrical.logic_gates.logic_gate;operation=and;rotation=90;" vertex="1" parent="1">
          <mxGeometry x="771.31" y="544" width="55" height="33" as="geometry" />
        </mxCell>
        <mxCell id="HSr_1RYZODbHexCvH2bF-149" value="" style="endArrow=none;html=1;rounded=0;entryX=0.421;entryY=0.992;entryDx=0;entryDy=0;exitX=0;exitY=0.25;exitDx=0;exitDy=0;exitPerimeter=0;entryPerimeter=0;" edge="1" parent="1" source="HSr_1RYZODbHexCvH2bF-148">
          <mxGeometry width="50" height="50" relative="1" as="geometry">
            <mxPoint x="808.06" y="533" as="sourcePoint" />
            <mxPoint x="827.05" y="479.76" as="targetPoint" />
            <Array as="points">
              <mxPoint x="807.31" y="500" />
              <mxPoint x="827.31" y="500" />
            </Array>
          </mxGeometry>
        </mxCell>
        <mxCell id="HSr_1RYZODbHexCvH2bF-150" value="&lt;font style=&quot;font-size: 7px;&quot;&gt;Comparator&lt;/font&gt;" style="rounded=0;whiteSpace=wrap;html=1;" vertex="1" parent="1">
          <mxGeometry x="1014.31" y="450" width="50" height="30" as="geometry" />
        </mxCell>
        <mxCell id="HSr_1RYZODbHexCvH2bF-151" value="" style="verticalLabelPosition=bottom;shadow=0;dashed=0;align=center;html=1;verticalAlign=top;shape=mxgraph.electrical.logic_gates.buffer2;rotation=90;" vertex="1" parent="1">
          <mxGeometry x="1064.31" y="509.995" width="53.67" height="40" as="geometry" />
        </mxCell>
        <mxCell id="HSr_1RYZODbHexCvH2bF-152" value="" style="endArrow=none;html=1;rounded=0;entryX=0.492;entryY=0.761;entryDx=0;entryDy=0;entryPerimeter=0;" edge="1" parent="1" target="HSr_1RYZODbHexCvH2bF-151">
          <mxGeometry width="50" height="50" relative="1" as="geometry">
            <mxPoint x="1007.31" y="530" as="sourcePoint" />
            <mxPoint x="1147.31" y="530.995" as="targetPoint" />
            <Array as="points">
              <mxPoint x="1073.31" y="529.995" />
            </Array>
          </mxGeometry>
        </mxCell>
        <mxCell id="HSr_1RYZODbHexCvH2bF-153" value="" style="edgeStyle=segmentEdgeStyle;endArrow=classic;html=1;curved=0;rounded=0;endSize=8;startSize=8;exitX=1;exitY=0.5;exitDx=0;exitDy=0;" edge="1" parent="1" source="HSr_1RYZODbHexCvH2bF-151">
          <mxGeometry width="50" height="50" relative="1" as="geometry">
            <mxPoint x="1152.31" y="559.995" as="sourcePoint" />
            <mxPoint x="720" y="680" as="targetPoint" />
            <Array as="points">
              <mxPoint x="1090" y="557" />
              <mxPoint x="1090" y="620" />
              <mxPoint x="720" y="620" />
            </Array>
          </mxGeometry>
        </mxCell>
        <mxCell id="HSr_1RYZODbHexCvH2bF-154" value="" style="verticalLabelPosition=bottom;shadow=0;dashed=0;align=center;html=1;verticalAlign=top;shape=mxgraph.electrical.logic_gates.logic_gate;operation=and;rotation=90;" vertex="1" parent="1">
          <mxGeometry x="971.31" y="543.005" width="55" height="33" as="geometry" />
        </mxCell>
        <mxCell id="HSr_1RYZODbHexCvH2bF-155" value="" style="endArrow=none;html=1;rounded=0;exitX=0;exitY=0.25;exitDx=0;exitDy=0;exitPerimeter=0;entryX=0.453;entryY=0.991;entryDx=0;entryDy=0;entryPerimeter=0;" edge="1" parent="1" target="HSr_1RYZODbHexCvH2bF-150">
          <mxGeometry width="50" height="50" relative="1" as="geometry">
            <mxPoint x="1007.31" y="533.24" as="sourcePoint" />
            <mxPoint x="1037.31" y="480" as="targetPoint" />
            <Array as="points">
              <mxPoint x="1007.31" y="500.24" />
              <mxPoint x="1027.31" y="500.24" />
              <mxPoint x="1037.31" y="500" />
            </Array>
          </mxGeometry>
        </mxCell>
        <mxCell id="HSr_1RYZODbHexCvH2bF-157" style="rounded=0;orthogonalLoop=1;jettySize=auto;html=1;entryX=0.235;entryY=0.439;entryDx=0;entryDy=0;entryPerimeter=0;exitX=1;exitY=0.5;exitDx=0;exitDy=0;exitPerimeter=0;endArrow=none;startFill=0;edgeStyle=orthogonalEdgeStyle;" edge="1" parent="1" source="HSr_1RYZODbHexCvH2bF-154" target="HSr_1RYZODbHexCvH2bF-76">
          <mxGeometry relative="1" as="geometry">
            <mxPoint x="987.31" y="590" as="sourcePoint" />
            <Array as="points">
              <mxPoint x="999" y="600" />
              <mxPoint x="520" y="600" />
            </Array>
            <mxPoint x="902.8100000000002" y="611.5" as="targetPoint" />
          </mxGeometry>
        </mxCell>
        <mxCell id="HSr_1RYZODbHexCvH2bF-160" style="edgeStyle=orthogonalEdgeStyle;rounded=0;orthogonalLoop=1;jettySize=auto;html=1;exitX=0.296;exitY=0.959;exitDx=0;exitDy=0;exitPerimeter=0;" edge="1" parent="1">
          <mxGeometry relative="1" as="geometry">
            <mxPoint x="825.31" y="345.5" as="sourcePoint" />
            <mxPoint x="848.31" y="450" as="targetPoint" />
            <Array as="points">
              <mxPoint x="825.31" y="409.5" />
              <mxPoint x="848.31" y="409.5" />
            </Array>
          </mxGeometry>
        </mxCell>
        <mxCell id="HSr_1RYZODbHexCvH2bF-161" style="edgeStyle=orthogonalEdgeStyle;rounded=0;orthogonalLoop=1;jettySize=auto;html=1;entryX=0;entryY=0.75;entryDx=0;entryDy=0;entryPerimeter=0;exitX=0.053;exitY=0.982;exitDx=0;exitDy=0;exitPerimeter=0;endArrow=none;startFill=0;" edge="1" parent="1" source="HSr_1RYZODbHexCvH2bF-115" target="HSr_1RYZODbHexCvH2bF-148">
          <mxGeometry relative="1" as="geometry">
            <mxPoint x="770" y="430" as="sourcePoint" />
            <mxPoint x="773" y="616" as="targetPoint" />
          </mxGeometry>
        </mxCell>
        <mxCell id="HSr_1RYZODbHexCvH2bF-162" style="edgeStyle=orthogonalEdgeStyle;rounded=0;orthogonalLoop=1;jettySize=auto;html=1;entryX=0;entryY=0.75;entryDx=0;entryDy=0;entryPerimeter=0;exitX=0.056;exitY=1.025;exitDx=0;exitDy=0;exitPerimeter=0;endArrow=none;startFill=0;" edge="1" parent="1" source="HSr_1RYZODbHexCvH2bF-132" target="HSr_1RYZODbHexCvH2bF-154">
          <mxGeometry relative="1" as="geometry">
            <mxPoint x="945" y="369.5" as="sourcePoint" />
            <mxPoint x="947" y="557.5" as="targetPoint" />
          </mxGeometry>
        </mxCell>
        <mxCell id="HSr_1RYZODbHexCvH2bF-163" style="edgeStyle=orthogonalEdgeStyle;rounded=0;orthogonalLoop=1;jettySize=auto;html=1;exitX=0.296;exitY=0.959;exitDx=0;exitDy=0;exitPerimeter=0;" edge="1" parent="1">
          <mxGeometry relative="1" as="geometry">
            <mxPoint x="1004.85" y="345.5" as="sourcePoint" />
            <mxPoint x="1027.85" y="450" as="targetPoint" />
            <Array as="points">
              <mxPoint x="1004.85" y="409.5" />
              <mxPoint x="1027.85" y="409.5" />
            </Array>
          </mxGeometry>
        </mxCell>
        <mxCell id="HSr_1RYZODbHexCvH2bF-164" style="edgeStyle=orthogonalEdgeStyle;rounded=0;orthogonalLoop=1;jettySize=auto;html=1;exitX=0.73;exitY=0.945;exitDx=0;exitDy=0;entryX=0;entryY=0.5;entryDx=0;entryDy=0;endArrow=none;startFill=0;exitPerimeter=0;" edge="1" parent="1" target="HSr_1RYZODbHexCvH2bF-143">
          <mxGeometry relative="1" as="geometry">
            <mxPoint x="925" y="503.72" as="targetPoint" />
            <mxPoint x="900" y="345.72" as="sourcePoint" />
            <Array as="points">
              <mxPoint x="902" y="346" />
              <mxPoint x="902" y="451" />
              <mxPoint x="914" y="451" />
            </Array>
          </mxGeometry>
        </mxCell>
        <mxCell id="HSr_1RYZODbHexCvH2bF-165" style="edgeStyle=orthogonalEdgeStyle;rounded=0;orthogonalLoop=1;jettySize=auto;html=1;exitX=0.73;exitY=0.945;exitDx=0;exitDy=0;entryX=0;entryY=0.5;entryDx=0;entryDy=0;endArrow=none;startFill=0;exitPerimeter=0;" edge="1" parent="1">
          <mxGeometry relative="1" as="geometry">
            <mxPoint x="1091" y="503" as="targetPoint" />
            <mxPoint x="1077" y="345.72" as="sourcePoint" />
            <Array as="points">
              <mxPoint x="1079" y="346" />
              <mxPoint x="1079" y="451" />
              <mxPoint x="1091" y="451" />
            </Array>
          </mxGeometry>
        </mxCell>
        <mxCell id="HSr_1RYZODbHexCvH2bF-166" style="edgeStyle=orthogonalEdgeStyle;rounded=0;orthogonalLoop=1;jettySize=auto;html=1;entryX=0.228;entryY=0.61;entryDx=0;entryDy=0;entryPerimeter=0;endArrow=none;startFill=0;" edge="1" parent="1" source="HSr_1RYZODbHexCvH2bF-148" target="HSr_1RYZODbHexCvH2bF-76">
          <mxGeometry relative="1" as="geometry">
            <Array as="points">
              <mxPoint x="799" y="610" />
              <mxPoint x="515" y="610" />
            </Array>
          </mxGeometry>
        </mxCell>
      </root>
    </mxGraphModel>
  </diagram>
</mxfile>
